<svg xmlns="http://www.w3.org/2000/svg" viewBox="0 0 100 100" width="124" height="124" role="img" aria-label="Pods Win Tracker — Austin, Texas">
  <path d="M30,8 L47,8 L47,30 L52,28 L58,33 L64,30 L70,33 L78,33 L80,34 L80,42 L83,50 L80,58 L78,64 L72,68 L66,73 L60,80 L54,86 L50,92 L45,84 L41,78 L38,72 L40,66 L33,64 L28,58 L20,50 L12,44 L5,40 L12,30 L30,33 Z"
        fill="#E8B84B"/>
  <text x="45" y="56" text-anchor="middle"
        font-family="Impact, 'Arial Narrow', 'Helvetica Neue', Arial, sans-serif"
        font-size="13" font-weight="bold" letter-spacing="0.3" fill="#1E1B18">AUSTIN</text>
</svg>
